# Tiled2Unity generated file. Do not modify by hand.
# Wavefront file for 'untitled_mesh_0008.obj'

# Vertices (Count = 528)
v -44 -45 0
v -45 -45 0
v -45 -44 0
v -44 -44 0
v -47 -45 0
v -48 -45 0
v -48 -44 0
v -47 -44 0
v -49 -45 0
v -50 -45 0
v -50 -44 0
v -49 -44 0
v -50 -45 0
v -51 -45 0
v -51 -44 0
v -50 -44 0
v -51 -45 0
v -52 -45 0
v -52 -44 0
v -51 -44 0
v -54 -45 0
v -55 -45 0
v -55 -44 0
v -54 -44 0
v -57 -45 0
v -58 -45 0
v -58 -44 0
v -57 -44 0
v -44 -46 0
v -45 -46 0
v -45 -45 0
v -44 -45 0
v -47 -46 0
v -48 -46 0
v -48 -45 0
v -47 -45 0
v -49 -46 0
v -50 -46 0
v -50 -45 0
v -49 -45 0
v -50 -46 0
v -51 -46 0
v -51 -45 0
v -50 -45 0
v -51 -46 0
v -52 -46 0
v -52 -45 0
v -51 -45 0
v -54 -46 0
v -55 -46 0
v -55 -45 0
v -54 -45 0
v -57 -46 0
v -58 -46 0
v -58 -45 0
v -57 -45 0
v -42 -47 0
v -43 -47 0
v -43 -46 0
v -42 -46 0
v -43 -47 0
v -44 -47 0
v -44 -46 0
v -43 -46 0
v -44 -47 0
v -45 -47 0
v -45 -46 0
v -44 -46 0
v -45 -47 0
v -46 -47 0
v -46 -46 0
v -45 -46 0
v -49 -47 0
v -50 -47 0
v -50 -46 0
v -49 -46 0
v -50 -47 0
v -51 -47 0
v -51 -46 0
v -50 -46 0
v -51 -47 0
v -52 -47 0
v -52 -46 0
v -51 -46 0
v -42 -48 0
v -43 -48 0
v -43 -47 0
v -42 -47 0
v -43 -48 0
v -44 -48 0
v -44 -47 0
v -43 -47 0
v -44 -48 0
v -45 -48 0
v -45 -47 0
v -44 -47 0
v -45 -48 0
v -46 -48 0
v -46 -47 0
v -45 -47 0
v -41 -49 0
v -42 -49 0
v -42 -48 0
v -41 -48 0
v -42 -49 0
v -43 -49 0
v -43 -48 0
v -42 -48 0
v -44 -49 0
v -45 -49 0
v -45 -48 0
v -44 -48 0
v -45 -49 0
v -46 -49 0
v -46 -48 0
v -45 -48 0
v -46 -49 0
v -47 -49 0
v -47 -48 0
v -46 -48 0
v -55 -49 0
v -56 -49 0
v -56 -48 0
v -55 -48 0
v -56 -49 0
v -57 -49 0
v -57 -48 0
v -56 -48 0
v -57 -49 0
v -58 -49 0
v -58 -48 0
v -57 -48 0
v -41 -50 0
v -42 -50 0
v -42 -49 0
v -41 -49 0
v -42 -50 0
v -43 -50 0
v -43 -49 0
v -42 -49 0
v -41 -51 0
v -42 -51 0
v -42 -50 0
v -41 -50 0
v -42 -51 0
v -43 -51 0
v -43 -50 0
v -42 -50 0
v -58 -51 0
v -59 -51 0
v -59 -50 0
v -58 -50 0
v -43 -52 0
v -44 -52 0
v -44 -51 0
v -43 -51 0
v -54 -52 0
v -55 -52 0
v -55 -51 0
v -54 -51 0
v -55 -52 0
v -56 -52 0
v -56 -51 0
v -55 -51 0
v -58 -52 0
v -59 -52 0
v -59 -51 0
v -58 -51 0
v -43 -53 0
v -44 -53 0
v -44 -52 0
v -43 -52 0
v -49 -53 0
v -50 -53 0
v -50 -52 0
v -49 -52 0
v -50 -53 0
v -51 -53 0
v -51 -52 0
v -50 -52 0
v -51 -53 0
v -52 -53 0
v -52 -52 0
v -51 -52 0
v -54 -53 0
v -55 -53 0
v -55 -52 0
v -54 -52 0
v -55 -53 0
v -56 -53 0
v -56 -52 0
v -55 -52 0
v -49 -54 0
v -50 -54 0
v -50 -53 0
v -49 -53 0
v -50 -54 0
v -51 -54 0
v -51 -53 0
v -50 -53 0
v -51 -54 0
v -52 -54 0
v -52 -53 0
v -51 -53 0
v -55 -54 0
v -56 -54 0
v -56 -53 0
v -55 -53 0
v -49 -55 0
v -50 -55 0
v -50 -54 0
v -49 -54 0
v -50 -55 0
v -51 -55 0
v -51 -54 0
v -50 -54 0
v -51 -55 0
v -52 -55 0
v -52 -54 0
v -51 -54 0
v -55 -55 0
v -56 -55 0
v -56 -54 0
v -55 -54 0
v -47 -56 0
v -48 -56 0
v -48 -55 0
v -47 -55 0
v -49 -56 0
v -50 -56 0
v -50 -55 0
v -49 -55 0
v -50 -56 0
v -51 -56 0
v -51 -55 0
v -50 -55 0
v -51 -56 0
v -52 -56 0
v -52 -55 0
v -51 -55 0
v -53 -56 0
v -54 -56 0
v -54 -55 0
v -53 -55 0
v -55 -56 0
v -56 -56 0
v -56 -55 0
v -55 -55 0
v -57 -56 0
v -58 -56 0
v -58 -55 0
v -57 -55 0
v -58 -56 0
v -59 -56 0
v -59 -55 0
v -58 -55 0
v -59 -56 0
v -60 -56 0
v -60 -55 0
v -59 -55 0
v -60 -56 0
v -61 -56 0
v -61 -55 0
v -60 -55 0
v -47 -57 0
v -48 -57 0
v -48 -56 0
v -47 -56 0
v -49 -57 0
v -50 -57 0
v -50 -56 0
v -49 -56 0
v -50 -57 0
v -51 -57 0
v -51 -56 0
v -50 -56 0
v -51 -57 0
v -52 -57 0
v -52 -56 0
v -51 -56 0
v -53 -57 0
v -54 -57 0
v -54 -56 0
v -53 -56 0
v -55 -57 0
v -56 -57 0
v -56 -56 0
v -55 -56 0
v -57 -57 0
v -58 -57 0
v -58 -56 0
v -57 -56 0
v -58 -57 0
v -59 -57 0
v -59 -56 0
v -58 -56 0
v -59 -57 0
v -60 -57 0
v -60 -56 0
v -59 -56 0
v -60 -57 0
v -61 -57 0
v -61 -56 0
v -60 -56 0
v -49 -58 0
v -50 -58 0
v -50 -57 0
v -49 -57 0
v -50 -58 0
v -51 -58 0
v -51 -57 0
v -50 -57 0
v -57 -58 0
v -58 -58 0
v -58 -57 0
v -57 -57 0
v -58 -58 0
v -59 -58 0
v -59 -57 0
v -58 -57 0
v -59 -58 0
v -60 -58 0
v -60 -57 0
v -59 -57 0
v -60 -58 0
v -61 -58 0
v -61 -57 0
v -60 -57 0
v -49 -59 0
v -50 -59 0
v -50 -58 0
v -49 -58 0
v -50 -59 0
v -51 -59 0
v -51 -58 0
v -50 -58 0
v -41 -60 0
v -42 -60 0
v -42 -59 0
v -41 -59 0
v -42 -60 0
v -43 -60 0
v -43 -59 0
v -42 -59 0
v -55 -60 0
v -56 -60 0
v -56 -59 0
v -55 -59 0
v -56 -60 0
v -57 -60 0
v -57 -59 0
v -56 -59 0
v -57 -60 0
v -58 -60 0
v -58 -59 0
v -57 -59 0
v -58 -60 0
v -59 -60 0
v -59 -59 0
v -58 -59 0
v -59 -60 0
v -60 -60 0
v -60 -59 0
v -59 -59 0
v -60 -60 0
v -61 -60 0
v -61 -59 0
v -60 -59 0
v -61 -60 0
v -62 -60 0
v -62 -59 0
v -61 -59 0
v -41 -61 0
v -42 -61 0
v -42 -60 0
v -41 -60 0
v -42 -61 0
v -43 -61 0
v -43 -60 0
v -42 -60 0
v -44 -61 0
v -45 -61 0
v -45 -60 0
v -44 -60 0
v -55 -61 0
v -56 -61 0
v -56 -60 0
v -55 -60 0
v -56 -61 0
v -57 -61 0
v -57 -60 0
v -56 -60 0
v -57 -61 0
v -58 -61 0
v -58 -60 0
v -57 -60 0
v -58 -61 0
v -59 -61 0
v -59 -60 0
v -58 -60 0
v -59 -61 0
v -60 -61 0
v -60 -60 0
v -59 -60 0
v -60 -61 0
v -61 -61 0
v -61 -60 0
v -60 -60 0
v -61 -61 0
v -62 -61 0
v -62 -60 0
v -61 -60 0
v -41 -62 0
v -42 -62 0
v -42 -61 0
v -41 -61 0
v -42 -62 0
v -43 -62 0
v -43 -61 0
v -42 -61 0
v -44 -62 0
v -45 -62 0
v -45 -61 0
v -44 -61 0
v -41 -63 0
v -42 -63 0
v -42 -62 0
v -41 -62 0
v -42 -63 0
v -43 -63 0
v -43 -62 0
v -42 -62 0
v -43 -63 0
v -44 -63 0
v -44 -62 0
v -43 -62 0
v -44 -63 0
v -45 -63 0
v -45 -62 0
v -44 -62 0
v -45 -63 0
v -46 -63 0
v -46 -62 0
v -45 -62 0
v -46 -63 0
v -47 -63 0
v -47 -62 0
v -46 -62 0
v -47 -63 0
v -48 -63 0
v -48 -62 0
v -47 -62 0
v -48 -63 0
v -49 -63 0
v -49 -62 0
v -48 -62 0
v -41 -64 0
v -42 -64 0
v -42 -63 0
v -41 -63 0
v -42 -64 0
v -43 -64 0
v -43 -63 0
v -42 -63 0
v -43 -64 0
v -44 -64 0
v -44 -63 0
v -43 -63 0
v -44 -64 0
v -45 -64 0
v -45 -63 0
v -44 -63 0
v -45 -64 0
v -46 -64 0
v -46 -63 0
v -45 -63 0
v -46 -64 0
v -47 -64 0
v -47 -63 0
v -46 -63 0
v -47 -64 0
v -48 -64 0
v -48 -63 0
v -47 -63 0
v -48 -64 0
v -49 -64 0
v -49 -63 0
v -48 -63 0
v -61 -64 0
v -62 -64 0
v -62 -63 0
v -61 -63 0
v -41 -65 0
v -42 -65 0
v -42 -64 0
v -41 -64 0
v -42 -65 0
v -43 -65 0
v -43 -64 0
v -42 -64 0
v -43 -65 0
v -44 -65 0
v -44 -64 0
v -43 -64 0
v -44 -65 0
v -45 -65 0
v -45 -64 0
v -44 -64 0
v -45 -65 0
v -46 -65 0
v -46 -64 0
v -45 -64 0
v -46 -65 0
v -47 -65 0
v -47 -64 0
v -46 -64 0
v -47 -65 0
v -48 -65 0
v -48 -64 0
v -47 -64 0
v -48 -65 0
v -49 -65 0
v -49 -64 0
v -48 -64 0
v -61 -65 0
v -62 -65 0
v -62 -64 0
v -61 -64 0

# Texture cooridinates (Count = 154)
vt 0.125 0.9375
vt 0.1875 0.9375
vt 0.1875 1
vt 0.125 1
vt 0.5 0.9375
vt 0.5625 0.9375
vt 0.5625 1
vt 0.5 1
vt 0.625 0.9375
vt 0.625 1
vt 0.6875 0.9375
vt 0.6875 1
vt 0.125 0.875
vt 0.1875 0.875
vt 0.5 0.875
vt 0.5625 0.875
vt 0.625 0.875
vt 0.6875 0.875
vt 0.75 0.0625
vt 0.8125 0.0625
vt 0.8125 0.125
vt 0.75 0.125
vt 0.875 0.0625
vt 0.875 0.125
vt 0.9375 0.0625
vt 0.9375 0.125
vt 1 0.0625
vt 1 0.125
vt 0.5 0.8125
vt 0.5625 0.8125
vt 0.625 0.8125
vt 0.6875 0.8125
vt 0.75 0
vt 0.8125 0
vt 0.875 0
vt 0.9375 0
vt 1 0
vt 0.25 0.375
vt 0.3125 0.375
vt 0.3125 0.4375
vt 0.25 0.4375
vt 0.375 0.375
vt 0.375 0.4375
vt 0.3125 0.9375
vt 0.375 0.9375
vt 0.375 1
vt 0.3125 1
vt 0.4375 0.9375
vt 0.4375 1
vt 0.25 0.3125
vt 0.3125 0.3125
vt 0.375 0.3125
vt 0.25 0.25
vt 0.3125 0.25
vt 0.375 0.25
vt 0.0625 0.8125
vt 0.125 0.8125
vt 0.0625 0.875
vt 0.125 0.5
vt 0.1875 0.5
vt 0.1875 0.5625
vt 0.125 0.5625
vt 0.1875 0.8125
vt 0.25 0.8125
vt 0.25 0.875
vt 0.0625 0.75
vt 0.125 0.75
vt 0.125 0.4375
vt 0.1875 0.4375
vt 0.375 0.1875
vt 0.4375 0.1875
vt 0.4375 0.25
vt 0.1875 0.75
vt 0.25 0.75
vt 0.375 0.125
vt 0.4375 0.125
vt 0.125 0.1875
vt 0.1875 0.1875
vt 0.1875 0.25
vt 0.125 0.25
vt 0 0.6875
vt 0.0625 0.6875
vt 0 0.75
vt 0.125 0.6875
vt 0.1875 0.6875
vt 0.125 0.125
vt 0.1875 0.125
vt 0 0.625
vt 0.0625 0.625
vt 0.125 0.625
vt 0.1875 0.625
vt 0.25 0.1875
vt 0 0.375
vt 0.0625 0.375
vt 0.0625 0.4375
vt 0 0.4375
vt 0.125 0.375
vt 0.1875 0.375
vt 0 0.5625
vt 0.0625 0.5625
vt 0.25 0.125
vt 0 0.3125
vt 0.0625 0.3125
vt 0.125 0.3125
vt 0.1875 0.3125
vt 0 0.1875
vt 0.0625 0.1875
vt 0.0625 0.25
vt 0 0.25
vt 0 0.125
vt 0.0625 0.125
vt 0.4375 0.375
vt 0.4375 0.4375
vt 0.5 0.375
vt 0.5 0.4375
vt 0.5 0.75
vt 0.5625 0.75
vt 0.625 0.75
vt 0.6875 0.75
vt 0.75 0.75
vt 0.75 0.8125
vt 0.8125 0.75
vt 0.8125 0.8125
vt 0.875 0.75
vt 0.875 0.8125
vt 0.9375 0.75
vt 0.9375 0.8125
vt 0.4375 0.3125
vt 0.5 0.3125
vt 0.5 0.6875
vt 0.5625 0.6875
vt 0.625 0.6875
vt 0.6875 0.6875
vt 0.75 0.6875
vt 0.8125 0.6875
vt 0.875 0.6875
vt 0.9375 0.6875
vt 0.5 0.25
vt 1 0.75
vt 1 0.8125
vt 1 0.6875
vt 0.375 0.0625
vt 0.4375 0.0625
vt 0.5 0.625
vt 0.5625 0.625
vt 0.625 0.625
vt 0.6875 0.625
vt 0.75 0.625
vt 0.8125 0.625
vt 0.875 0.625
vt 0.9375 0.625
vt 1 0.625
vt 0.375 0
vt 0.4375 0

# Normal
vn 0 0 -1

# Mesh description
g untitled_mesh_0008

# Faces
f 1/1/1 2/2/1 3/3/1 4/4/1
f 5/1/1 6/2/1 7/3/1 8/4/1
f 9/5/1 10/6/1 11/7/1 12/8/1
f 13/6/1 14/9/1 15/10/1 16/7/1
f 17/9/1 18/11/1 19/12/1 20/10/1
f 21/1/1 22/2/1 23/3/1 24/4/1
f 25/1/1 26/2/1 27/3/1 28/4/1
f 29/13/1 30/14/1 31/2/1 32/1/1
f 33/13/1 34/14/1 35/2/1 36/1/1
f 37/15/1 38/16/1 39/6/1 40/5/1
f 41/16/1 42/17/1 43/9/1 44/6/1
f 45/17/1 46/18/1 47/11/1 48/9/1
f 49/13/1 50/14/1 51/2/1 52/1/1
f 53/13/1 54/14/1 55/2/1 56/1/1
f 57/19/1 58/20/1 59/21/1 60/22/1
f 61/20/1 62/23/1 63/24/1 64/21/1
f 65/23/1 66/25/1 67/26/1 68/24/1
f 69/25/1 70/27/1 71/28/1 72/26/1
f 73/29/1 74/30/1 75/16/1 76/15/1
f 77/30/1 78/31/1 79/17/1 80/16/1
f 81/31/1 82/32/1 83/18/1 84/17/1
f 85/33/1 86/34/1 87/20/1 88/19/1
f 89/34/1 90/35/1 91/23/1 92/20/1
f 93/35/1 94/36/1 95/25/1 96/23/1
f 97/36/1 98/37/1 99/27/1 100/25/1
f 101/38/1 102/39/1 103/40/1 104/41/1
f 105/39/1 106/42/1 107/43/1 108/40/1
f 109/44/1 110/45/1 111/46/1 112/47/1
f 113/45/1 114/48/1 115/49/1 116/46/1
f 117/48/1 118/5/1 119/8/1 120/49/1
f 121/44/1 122/45/1 123/46/1 124/47/1
f 125/45/1 126/48/1 127/49/1 128/46/1
f 129/48/1 130/5/1 131/8/1 132/49/1
f 133/50/1 134/51/1 135/39/1 136/38/1
f 137/51/1 138/52/1 139/42/1 140/39/1
f 141/53/1 142/54/1 143/51/1 144/50/1
f 145/54/1 146/55/1 147/52/1 148/51/1
f 149/56/1 150/57/1 151/13/1 152/58/1
f 153/59/1 154/60/1 155/61/1 156/62/1
f 157/57/1 158/63/1 159/14/1 160/13/1
f 161/63/1 162/64/1 163/65/1 164/14/1
f 165/66/1 166/67/1 167/57/1 168/56/1
f 169/68/1 170/69/1 171/60/1 172/59/1
f 173/70/1 174/71/1 175/72/1 176/55/1
f 177/70/1 178/71/1 179/72/1 180/55/1
f 181/70/1 182/71/1 183/72/1 184/55/1
f 185/67/1 186/73/1 187/63/1 188/57/1
f 189/73/1 190/74/1 191/64/1 192/63/1
f 193/75/1 194/76/1 195/71/1 196/70/1
f 197/75/1 198/76/1 199/71/1 200/70/1
f 201/75/1 202/76/1 203/71/1 204/70/1
f 205/77/1 206/78/1 207/79/1 208/80/1
f 209/81/1 210/82/1 211/66/1 212/83/1
f 213/82/1 214/84/1 215/67/1 216/66/1
f 217/84/1 218/85/1 219/73/1 220/67/1
f 221/86/1 222/87/1 223/78/1 224/77/1
f 225/77/1 226/78/1 227/79/1 228/80/1
f 229/88/1 230/89/1 231/82/1 232/81/1
f 233/89/1 234/90/1 235/84/1 236/82/1
f 237/90/1 238/91/1 239/85/1 240/84/1
f 241/78/1 242/92/1 243/53/1 244/79/1
f 245/77/1 246/78/1 247/79/1 248/80/1
f 249/93/1 250/94/1 251/95/1 252/96/1
f 253/94/1 254/97/1 255/68/1 256/95/1
f 257/97/1 258/98/1 259/69/1 260/68/1
f 261/98/1 262/38/1 263/41/1 264/69/1
f 265/86/1 266/87/1 267/78/1 268/77/1
f 269/99/1 270/100/1 271/89/1 272/88/1
f 273/100/1 274/62/1 275/90/1 276/89/1
f 277/62/1 278/61/1 279/91/1 280/90/1
f 281/87/1 282/101/1 283/92/1 284/78/1
f 285/86/1 286/87/1 287/78/1 288/77/1
f 289/102/1 290/103/1 291/94/1 292/93/1
f 293/103/1 294/104/1 295/97/1 296/94/1
f 297/104/1 298/105/1 299/98/1 300/97/1
f 301/105/1 302/50/1 303/38/1 304/98/1
f 305/106/1 306/107/1 307/108/1 308/109/1
f 309/107/1 310/77/1 311/80/1 312/108/1
f 313/109/1 314/108/1 315/103/1 316/102/1
f 317/108/1 318/80/1 319/104/1 320/103/1
f 321/80/1 322/79/1 323/105/1 324/104/1
f 325/79/1 326/53/1 327/50/1 328/105/1
f 329/110/1 330/111/1 331/107/1 332/106/1
f 333/111/1 334/86/1 335/77/1 336/107/1
f 337/42/1 338/112/1 339/113/1 340/43/1
f 341/112/1 342/114/1 343/115/1 344/113/1
f 345/116/1 346/117/1 347/30/1 348/29/1
f 349/117/1 350/118/1 351/31/1 352/30/1
f 353/118/1 354/119/1 355/32/1 356/31/1
f 357/119/1 358/120/1 359/121/1 360/32/1
f 361/120/1 362/122/1 363/123/1 364/121/1
f 365/122/1 366/124/1 367/125/1 368/123/1
f 369/124/1 370/126/1 371/127/1 372/125/1
f 373/52/1 374/128/1 375/112/1 376/42/1
f 377/128/1 378/129/1 379/114/1 380/112/1
f 381/78/1 382/92/1 383/53/1 384/79/1
f 385/130/1 386/131/1 387/117/1 388/116/1
f 389/131/1 390/132/1 391/118/1 392/117/1
f 393/132/1 394/133/1 395/119/1 396/118/1
f 397/133/1 398/134/1 399/120/1 400/119/1
f 401/134/1 402/135/1 403/122/1 404/120/1
f 405/135/1 406/136/1 407/124/1 408/122/1
f 409/136/1 410/137/1 411/126/1 412/124/1
f 413/55/1 414/72/1 415/128/1 416/52/1
f 417/72/1 418/138/1 419/129/1 420/128/1
f 421/87/1 422/101/1 423/92/1 424/78/1
f 425/116/1 426/117/1 427/30/1 428/29/1
f 429/117/1 430/118/1 431/31/1 432/30/1
f 433/118/1 434/119/1 435/32/1 436/31/1
f 437/119/1 438/120/1 439/121/1 440/32/1
f 441/120/1 442/122/1 443/123/1 444/121/1
f 445/122/1 446/124/1 447/125/1 448/123/1
f 449/124/1 450/126/1 451/127/1 452/125/1
f 453/126/1 454/139/1 455/140/1 456/127/1
f 457/130/1 458/131/1 459/117/1 460/116/1
f 461/131/1 462/132/1 463/118/1 464/117/1
f 465/132/1 466/133/1 467/119/1 468/118/1
f 469/133/1 470/134/1 471/120/1 472/119/1
f 473/134/1 474/135/1 475/122/1 476/120/1
f 477/135/1 478/136/1 479/124/1 480/122/1
f 481/136/1 482/137/1 483/126/1 484/124/1
f 485/137/1 486/141/1 487/139/1 488/126/1
f 489/142/1 490/143/1 491/76/1 492/75/1
f 493/144/1 494/145/1 495/131/1 496/130/1
f 497/145/1 498/146/1 499/132/1 500/131/1
f 501/146/1 502/147/1 503/133/1 504/132/1
f 505/147/1 506/148/1 507/134/1 508/133/1
f 509/148/1 510/149/1 511/135/1 512/134/1
f 513/149/1 514/150/1 515/136/1 516/135/1
f 517/150/1 518/151/1 519/137/1 520/136/1
f 521/151/1 522/152/1 523/141/1 524/137/1
f 525/153/1 526/154/1 527/143/1 528/142/1

