# Tiled2Unity generated file. Do not modify by hand.
# Wavefront file for 'untitled_mesh_0006.obj'

# Vertices (Count = 804)
v -40 -44 0
v -41 -44 0
v -41 -43 0
v -40 -43 0
v -41 -44 0
v -42 -44 0
v -42 -43 0
v -41 -43 0
v -42 -44 0
v -43 -44 0
v -43 -43 0
v -42 -43 0
v -43 -44 0
v -44 -44 0
v -44 -43 0
v -43 -43 0
v -44 -44 0
v -45 -44 0
v -45 -43 0
v -44 -43 0
v -45 -44 0
v -46 -44 0
v -46 -43 0
v -45 -43 0
v -46 -44 0
v -47 -44 0
v -47 -43 0
v -46 -43 0
v -47 -44 0
v -48 -44 0
v -48 -43 0
v -47 -43 0
v -48 -44 0
v -49 -44 0
v -49 -43 0
v -48 -43 0
v -49 -44 0
v -50 -44 0
v -50 -43 0
v -49 -43 0
v -50 -44 0
v -51 -44 0
v -51 -43 0
v -50 -43 0
v -51 -44 0
v -52 -44 0
v -52 -43 0
v -51 -43 0
v -52 -44 0
v -53 -44 0
v -53 -43 0
v -52 -43 0
v -53 -44 0
v -54 -44 0
v -54 -43 0
v -53 -43 0
v -54 -44 0
v -55 -44 0
v -55 -43 0
v -54 -43 0
v -55 -44 0
v -56 -44 0
v -56 -43 0
v -55 -43 0
v -56 -44 0
v -57 -44 0
v -57 -43 0
v -56 -43 0
v -57 -44 0
v -58 -44 0
v -58 -43 0
v -57 -43 0
v -58 -44 0
v -59 -44 0
v -59 -43 0
v -58 -43 0
v -59 -44 0
v -60 -44 0
v -60 -43 0
v -59 -43 0
v -60 -44 0
v -61 -44 0
v -61 -43 0
v -60 -43 0
v -61 -44 0
v -62 -44 0
v -62 -43 0
v -61 -43 0
v -62 -44 0
v -63 -44 0
v -63 -43 0
v -62 -43 0
v -40 -45 0
v -41 -45 0
v -41 -44 0
v -40 -44 0
v -41 -45 0
v -42 -45 0
v -42 -44 0
v -41 -44 0
v -42 -45 0
v -43 -45 0
v -43 -44 0
v -42 -44 0
v -43 -45 0
v -44 -45 0
v -44 -44 0
v -43 -44 0
v -44 -45 0
v -45 -45 0
v -45 -44 0
v -44 -44 0
v -45 -45 0
v -46 -45 0
v -46 -44 0
v -45 -44 0
v -46 -45 0
v -47 -45 0
v -47 -44 0
v -46 -44 0
v -47 -45 0
v -48 -45 0
v -48 -44 0
v -47 -44 0
v -48 -45 0
v -49 -45 0
v -49 -44 0
v -48 -44 0
v -49 -45 0
v -50 -45 0
v -50 -44 0
v -49 -44 0
v -50 -45 0
v -51 -45 0
v -51 -44 0
v -50 -44 0
v -51 -45 0
v -52 -45 0
v -52 -44 0
v -51 -44 0
v -52 -45 0
v -53 -45 0
v -53 -44 0
v -52 -44 0
v -53 -45 0
v -54 -45 0
v -54 -44 0
v -53 -44 0
v -54 -45 0
v -55 -45 0
v -55 -44 0
v -54 -44 0
v -55 -45 0
v -56 -45 0
v -56 -44 0
v -55 -44 0
v -56 -45 0
v -57 -45 0
v -57 -44 0
v -56 -44 0
v -57 -45 0
v -58 -45 0
v -58 -44 0
v -57 -44 0
v -58 -45 0
v -59 -45 0
v -59 -44 0
v -58 -44 0
v -59 -45 0
v -60 -45 0
v -60 -44 0
v -59 -44 0
v -60 -45 0
v -61 -45 0
v -61 -44 0
v -60 -44 0
v -61 -45 0
v -62 -45 0
v -62 -44 0
v -61 -44 0
v -62 -45 0
v -63 -45 0
v -63 -44 0
v -62 -44 0
v -40 -46 0
v -41 -46 0
v -41 -45 0
v -40 -45 0
v -41 -46 0
v -42 -46 0
v -42 -45 0
v -41 -45 0
v -42 -46 0
v -43 -46 0
v -43 -45 0
v -42 -45 0
v -43 -46 0
v -44 -46 0
v -44 -45 0
v -43 -45 0
v -44 -46 0
v -45 -46 0
v -45 -45 0
v -44 -45 0
v -45 -46 0
v -46 -46 0
v -46 -45 0
v -45 -45 0
v -46 -46 0
v -47 -46 0
v -47 -45 0
v -46 -45 0
v -47 -46 0
v -48 -46 0
v -48 -45 0
v -47 -45 0
v -48 -46 0
v -49 -46 0
v -49 -45 0
v -48 -45 0
v -49 -46 0
v -50 -46 0
v -50 -45 0
v -49 -45 0
v -50 -46 0
v -51 -46 0
v -51 -45 0
v -50 -45 0
v -51 -46 0
v -52 -46 0
v -52 -45 0
v -51 -45 0
v -52 -46 0
v -53 -46 0
v -53 -45 0
v -52 -45 0
v -53 -46 0
v -54 -46 0
v -54 -45 0
v -53 -45 0
v -54 -46 0
v -55 -46 0
v -55 -45 0
v -54 -45 0
v -55 -46 0
v -56 -46 0
v -56 -45 0
v -55 -45 0
v -56 -46 0
v -57 -46 0
v -57 -45 0
v -56 -45 0
v -57 -46 0
v -58 -46 0
v -58 -45 0
v -57 -45 0
v -58 -46 0
v -59 -46 0
v -59 -45 0
v -58 -45 0
v -59 -46 0
v -60 -46 0
v -60 -45 0
v -59 -45 0
v -60 -46 0
v -61 -46 0
v -61 -45 0
v -60 -45 0
v -61 -46 0
v -62 -46 0
v -62 -45 0
v -61 -45 0
v -62 -46 0
v -63 -46 0
v -63 -45 0
v -62 -45 0
v -40 -47 0
v -41 -47 0
v -41 -46 0
v -40 -46 0
v -62 -47 0
v -63 -47 0
v -63 -46 0
v -62 -46 0
v -40 -48 0
v -41 -48 0
v -41 -47 0
v -40 -47 0
v -62 -48 0
v -63 -48 0
v -63 -47 0
v -62 -47 0
v -40 -49 0
v -41 -49 0
v -41 -48 0
v -40 -48 0
v -41 -49 0
v -42 -49 0
v -42 -48 0
v -41 -48 0
v -42 -49 0
v -43 -49 0
v -43 -48 0
v -42 -48 0
v -43 -49 0
v -44 -49 0
v -44 -48 0
v -43 -48 0
v -44 -49 0
v -45 -49 0
v -45 -48 0
v -44 -48 0
v -45 -49 0
v -46 -49 0
v -46 -48 0
v -45 -48 0
v -46 -49 0
v -47 -49 0
v -47 -48 0
v -46 -48 0
v -47 -49 0
v -48 -49 0
v -48 -48 0
v -47 -48 0
v -48 -49 0
v -49 -49 0
v -49 -48 0
v -48 -48 0
v -52 -49 0
v -53 -49 0
v -53 -48 0
v -52 -48 0
v -53 -49 0
v -54 -49 0
v -54 -48 0
v -53 -48 0
v -54 -49 0
v -55 -49 0
v -55 -48 0
v -54 -48 0
v -55 -49 0
v -56 -49 0
v -56 -48 0
v -55 -48 0
v -56 -49 0
v -57 -49 0
v -57 -48 0
v -56 -48 0
v -57 -49 0
v -58 -49 0
v -58 -48 0
v -57 -48 0
v -58 -49 0
v -59 -49 0
v -59 -48 0
v -58 -48 0
v -59 -49 0
v -60 -49 0
v -60 -48 0
v -59 -48 0
v -60 -49 0
v -61 -49 0
v -61 -48 0
v -60 -48 0
v -61 -49 0
v -62 -49 0
v -62 -48 0
v -61 -48 0
v -62 -49 0
v -63 -49 0
v -63 -48 0
v -62 -48 0
v -40 -50 0
v -41 -50 0
v -41 -49 0
v -40 -49 0
v -48 -50 0
v -49 -50 0
v -49 -49 0
v -48 -49 0
v -52 -50 0
v -53 -50 0
v -53 -49 0
v -52 -49 0
v -62 -50 0
v -63 -50 0
v -63 -49 0
v -62 -49 0
v -40 -51 0
v -41 -51 0
v -41 -50 0
v -40 -50 0
v -48 -51 0
v -49 -51 0
v -49 -50 0
v -48 -50 0
v -52 -51 0
v -53 -51 0
v -53 -50 0
v -52 -50 0
v -62 -51 0
v -63 -51 0
v -63 -50 0
v -62 -50 0
v -40 -52 0
v -41 -52 0
v -41 -51 0
v -40 -51 0
v -48 -52 0
v -49 -52 0
v -49 -51 0
v -48 -51 0
v -62 -52 0
v -63 -52 0
v -63 -51 0
v -62 -51 0
v -40 -53 0
v -41 -53 0
v -41 -52 0
v -40 -52 0
v -48 -53 0
v -49 -53 0
v -49 -52 0
v -48 -52 0
v -62 -53 0
v -63 -53 0
v -63 -52 0
v -62 -52 0
v -40 -54 0
v -41 -54 0
v -41 -53 0
v -40 -53 0
v -48 -54 0
v -49 -54 0
v -49 -53 0
v -48 -53 0
v -62 -54 0
v -63 -54 0
v -63 -53 0
v -62 -53 0
v -40 -55 0
v -41 -55 0
v -41 -54 0
v -40 -54 0
v -43 -55 0
v -44 -55 0
v -44 -54 0
v -43 -54 0
v -44 -55 0
v -45 -55 0
v -45 -54 0
v -44 -54 0
v -45 -55 0
v -46 -55 0
v -46 -54 0
v -45 -54 0
v -46 -55 0
v -47 -55 0
v -47 -54 0
v -46 -54 0
v -47 -55 0
v -48 -55 0
v -48 -54 0
v -47 -54 0
v -48 -55 0
v -49 -55 0
v -49 -54 0
v -48 -54 0
v -62 -55 0
v -63 -55 0
v -63 -54 0
v -62 -54 0
v -40 -56 0
v -41 -56 0
v -41 -55 0
v -40 -55 0
v -62 -56 0
v -63 -56 0
v -63 -55 0
v -62 -55 0
v -40 -57 0
v -41 -57 0
v -41 -56 0
v -40 -56 0
v -62 -57 0
v -63 -57 0
v -63 -56 0
v -62 -56 0
v -40 -58 0
v -41 -58 0
v -41 -57 0
v -40 -57 0
v -41 -58 0
v -42 -58 0
v -42 -57 0
v -41 -57 0
v -42 -58 0
v -43 -58 0
v -43 -57 0
v -42 -57 0
v -43 -58 0
v -44 -58 0
v -44 -57 0
v -43 -57 0
v -44 -58 0
v -45 -58 0
v -45 -57 0
v -44 -57 0
v -62 -58 0
v -63 -58 0
v -63 -57 0
v -62 -57 0
v -70 -58 0
v -71 -58 0
v -71 -57 0
v -70 -57 0
v -40 -59 0
v -41 -59 0
v -41 -58 0
v -40 -58 0
v -53 -59 0
v -54 -59 0
v -54 -58 0
v -53 -58 0
v -62 -59 0
v -63 -59 0
v -63 -58 0
v -62 -58 0
v -40 -60 0
v -41 -60 0
v -41 -59 0
v -40 -59 0
v -45 -60 0
v -46 -60 0
v -46 -59 0
v -45 -59 0
v -53 -60 0
v -54 -60 0
v -54 -59 0
v -53 -59 0
v -55 -60 0
v -56 -60 0
v -56 -59 0
v -55 -59 0
v -56 -60 0
v -57 -60 0
v -57 -59 0
v -56 -59 0
v -57 -60 0
v -58 -60 0
v -58 -59 0
v -57 -59 0
v -58 -60 0
v -59 -60 0
v -59 -59 0
v -58 -59 0
v -59 -60 0
v -60 -60 0
v -60 -59 0
v -59 -59 0
v -60 -60 0
v -61 -60 0
v -61 -59 0
v -60 -59 0
v -61 -60 0
v -62 -60 0
v -62 -59 0
v -61 -59 0
v -62 -60 0
v -63 -60 0
v -63 -59 0
v -62 -59 0
v -40 -61 0
v -41 -61 0
v -41 -60 0
v -40 -60 0
v -45 -61 0
v -46 -61 0
v -46 -60 0
v -45 -60 0
v -53 -61 0
v -54 -61 0
v -54 -60 0
v -53 -60 0
v -55 -61 0
v -56 -61 0
v -56 -60 0
v -55 -60 0
v -56 -61 0
v -57 -61 0
v -57 -60 0
v -56 -60 0
v -57 -61 0
v -58 -61 0
v -58 -60 0
v -57 -60 0
v -58 -61 0
v -59 -61 0
v -59 -60 0
v -58 -60 0
v -59 -61 0
v -60 -61 0
v -60 -60 0
v -59 -60 0
v -60 -61 0
v -61 -61 0
v -61 -60 0
v -60 -60 0
v -61 -61 0
v -62 -61 0
v -62 -60 0
v -61 -60 0
v -62 -61 0
v -63 -61 0
v -63 -60 0
v -62 -60 0
v -40 -62 0
v -41 -62 0
v -41 -61 0
v -40 -61 0
v -45 -62 0
v -46 -62 0
v -46 -61 0
v -45 -61 0
v -53 -62 0
v -54 -62 0
v -54 -61 0
v -53 -61 0
v -62 -62 0
v -63 -62 0
v -63 -61 0
v -62 -61 0
v -40 -63 0
v -41 -63 0
v -41 -62 0
v -40 -62 0
v -41 -63 0
v -42 -63 0
v -42 -62 0
v -41 -62 0
v -42 -63 0
v -43 -63 0
v -43 -62 0
v -42 -62 0
v -43 -63 0
v -44 -63 0
v -44 -62 0
v -43 -62 0
v -44 -63 0
v -45 -63 0
v -45 -62 0
v -44 -62 0
v -45 -63 0
v -46 -63 0
v -46 -62 0
v -45 -62 0
v -46 -63 0
v -47 -63 0
v -47 -62 0
v -46 -62 0
v -47 -63 0
v -48 -63 0
v -48 -62 0
v -47 -62 0
v -48 -63 0
v -49 -63 0
v -49 -62 0
v -48 -62 0
v -53 -63 0
v -54 -63 0
v -54 -62 0
v -53 -62 0
v -54 -63 0
v -55 -63 0
v -55 -62 0
v -54 -62 0
v -55 -63 0
v -56 -63 0
v -56 -62 0
v -55 -62 0
v -56 -63 0
v -57 -63 0
v -57 -62 0
v -56 -62 0
v -57 -63 0
v -58 -63 0
v -58 -62 0
v -57 -62 0
v -58 -63 0
v -59 -63 0
v -59 -62 0
v -58 -62 0
v -59 -63 0
v -60 -63 0
v -60 -62 0
v -59 -62 0
v -60 -63 0
v -61 -63 0
v -61 -62 0
v -60 -62 0
v -61 -63 0
v -62 -63 0
v -62 -62 0
v -61 -62 0
v -62 -63 0
v -63 -63 0
v -63 -62 0
v -62 -62 0
v -40 -64 0
v -41 -64 0
v -41 -63 0
v -40 -63 0
v -62 -64 0
v -63 -64 0
v -63 -63 0
v -62 -63 0
v -40 -65 0
v -41 -65 0
v -41 -64 0
v -40 -64 0
v -62 -65 0
v -63 -65 0
v -63 -64 0
v -62 -64 0
v -40 -66 0
v -41 -66 0
v -41 -65 0
v -40 -65 0
v -41 -66 0
v -42 -66 0
v -42 -65 0
v -41 -65 0
v -42 -66 0
v -43 -66 0
v -43 -65 0
v -42 -65 0
v -43 -66 0
v -44 -66 0
v -44 -65 0
v -43 -65 0
v -44 -66 0
v -45 -66 0
v -45 -65 0
v -44 -65 0
v -45 -66 0
v -46 -66 0
v -46 -65 0
v -45 -65 0
v -46 -66 0
v -47 -66 0
v -47 -65 0
v -46 -65 0
v -47 -66 0
v -48 -66 0
v -48 -65 0
v -47 -65 0
v -48 -66 0
v -49 -66 0
v -49 -65 0
v -48 -65 0
v -53 -66 0
v -54 -66 0
v -54 -65 0
v -53 -65 0
v -54 -66 0
v -55 -66 0
v -55 -65 0
v -54 -65 0
v -55 -66 0
v -56 -66 0
v -56 -65 0
v -55 -65 0
v -56 -66 0
v -57 -66 0
v -57 -65 0
v -56 -65 0
v -57 -66 0
v -58 -66 0
v -58 -65 0
v -57 -65 0
v -58 -66 0
v -59 -66 0
v -59 -65 0
v -58 -65 0
v -59 -66 0
v -60 -66 0
v -60 -65 0
v -59 -65 0
v -60 -66 0
v -61 -66 0
v -61 -65 0
v -60 -65 0
v -61 -66 0
v -62 -66 0
v -62 -65 0
v -61 -65 0
v -62 -66 0
v -63 -66 0
v -63 -65 0
v -62 -65 0
v -61 -69 0
v -62 -69 0
v -62 -68 0
v -61 -68 0

# Texture cooridinates (Count = 26)
vt 0.125 0.5833334
vt 0.1875 0.5833334
vt 0.1875 0.6666666
vt 0.125 0.6666666
vt 0.125 0.4166667
vt 0.1875 0.4166667
vt 0.1875 0.5
vt 0.125 0.5
vt 0.3125 0.4166667
vt 0.375 0.4166667
vt 0.375 0.5
vt 0.3125 0.5
vt 0.0625 0.3333333
vt 0.125 0.3333333
vt 0.0625 0.4166667
vt 0 0.4166667
vt 0.0625 0.5
vt 0 0.5
vt 0.0625 0.25
vt 0.125 0.25
vt 0 0.3333333
vt 0 0.25
vt 0 0.9166667
vt 0.0625 0.9166667
vt 0.0625 1
vt 0 1

# Normal
vn 0 0 -1

# Mesh description
g untitled_mesh_0006

# Faces
f 1/1/1 2/2/1 3/3/1 4/4/1
f 5/1/1 6/2/1 7/3/1 8/4/1
f 9/1/1 10/2/1 11/3/1 12/4/1
f 13/1/1 14/2/1 15/3/1 16/4/1
f 17/1/1 18/2/1 19/3/1 20/4/1
f 21/1/1 22/2/1 23/3/1 24/4/1
f 25/1/1 26/2/1 27/3/1 28/4/1
f 29/1/1 30/2/1 31/3/1 32/4/1
f 33/1/1 34/2/1 35/3/1 36/4/1
f 37/1/1 38/2/1 39/3/1 40/4/1
f 41/1/1 42/2/1 43/3/1 44/4/1
f 45/1/1 46/2/1 47/3/1 48/4/1
f 49/1/1 50/2/1 51/3/1 52/4/1
f 53/1/1 54/2/1 55/3/1 56/4/1
f 57/1/1 58/2/1 59/3/1 60/4/1
f 61/1/1 62/2/1 63/3/1 64/4/1
f 65/1/1 66/2/1 67/3/1 68/4/1
f 69/1/1 70/2/1 71/3/1 72/4/1
f 73/1/1 74/2/1 75/3/1 76/4/1
f 77/1/1 78/2/1 79/3/1 80/4/1
f 81/1/1 82/2/1 83/3/1 84/4/1
f 85/1/1 86/2/1 87/3/1 88/4/1
f 89/1/1 90/2/1 91/3/1 92/4/1
f 93/1/1 94/2/1 95/3/1 96/4/1
f 97/5/1 98/6/1 99/7/1 100/8/1
f 101/5/1 102/6/1 103/7/1 104/8/1
f 105/5/1 106/6/1 107/7/1 108/8/1
f 109/5/1 110/6/1 111/7/1 112/8/1
f 113/5/1 114/6/1 115/7/1 116/8/1
f 117/5/1 118/6/1 119/7/1 120/8/1
f 121/5/1 122/6/1 123/7/1 124/8/1
f 125/5/1 126/6/1 127/7/1 128/8/1
f 129/5/1 130/6/1 131/7/1 132/8/1
f 133/5/1 134/6/1 135/7/1 136/8/1
f 137/5/1 138/6/1 139/7/1 140/8/1
f 141/5/1 142/6/1 143/7/1 144/8/1
f 145/5/1 146/6/1 147/7/1 148/8/1
f 149/5/1 150/6/1 151/7/1 152/8/1
f 153/5/1 154/6/1 155/7/1 156/8/1
f 157/5/1 158/6/1 159/7/1 160/8/1
f 161/5/1 162/6/1 163/7/1 164/8/1
f 165/5/1 166/6/1 167/7/1 168/8/1
f 169/5/1 170/6/1 171/7/1 172/8/1
f 173/5/1 174/6/1 175/7/1 176/8/1
f 177/5/1 178/6/1 179/7/1 180/8/1
f 181/1/1 182/2/1 183/3/1 184/4/1
f 185/1/1 186/2/1 187/3/1 188/4/1
f 189/5/1 190/6/1 191/7/1 192/8/1
f 193/5/1 194/6/1 195/7/1 196/8/1
f 197/5/1 198/6/1 199/7/1 200/8/1
f 201/5/1 202/6/1 203/7/1 204/8/1
f 205/5/1 206/6/1 207/7/1 208/8/1
f 209/5/1 210/6/1 211/7/1 212/8/1
f 213/5/1 214/6/1 215/7/1 216/8/1
f 217/5/1 218/6/1 219/7/1 220/8/1
f 221/5/1 222/6/1 223/7/1 224/8/1
f 225/5/1 226/6/1 227/7/1 228/8/1
f 229/5/1 230/6/1 231/7/1 232/8/1
f 233/5/1 234/6/1 235/7/1 236/8/1
f 237/5/1 238/6/1 239/7/1 240/8/1
f 241/5/1 242/6/1 243/7/1 244/8/1
f 245/5/1 246/6/1 247/7/1 248/8/1
f 249/5/1 250/6/1 251/7/1 252/8/1
f 253/5/1 254/6/1 255/7/1 256/8/1
f 257/5/1 258/6/1 259/7/1 260/8/1
f 261/5/1 262/6/1 263/7/1 264/8/1
f 265/5/1 266/6/1 267/7/1 268/8/1
f 269/5/1 270/6/1 271/7/1 272/8/1
f 273/1/1 274/2/1 275/3/1 276/4/1
f 277/1/1 278/2/1 279/3/1 280/4/1
f 281/1/1 282/2/1 283/3/1 284/4/1
f 285/1/1 286/2/1 287/3/1 288/4/1
f 289/1/1 290/2/1 291/3/1 292/4/1
f 293/1/1 294/2/1 295/3/1 296/4/1
f 297/1/1 298/2/1 299/3/1 300/4/1
f 301/1/1 302/2/1 303/3/1 304/4/1
f 305/1/1 306/2/1 307/3/1 308/4/1
f 309/1/1 310/2/1 311/3/1 312/4/1
f 313/1/1 314/2/1 315/3/1 316/4/1
f 317/1/1 318/2/1 319/3/1 320/4/1
f 321/1/1 322/2/1 323/3/1 324/4/1
f 325/1/1 326/2/1 327/3/1 328/4/1
f 329/1/1 330/2/1 331/3/1 332/4/1
f 333/1/1 334/2/1 335/3/1 336/4/1
f 337/1/1 338/2/1 339/3/1 340/4/1
f 341/1/1 342/2/1 343/3/1 344/4/1
f 345/1/1 346/2/1 347/3/1 348/4/1
f 349/1/1 350/2/1 351/3/1 352/4/1
f 353/1/1 354/2/1 355/3/1 356/4/1
f 357/1/1 358/2/1 359/3/1 360/4/1
f 361/1/1 362/2/1 363/3/1 364/4/1
f 365/1/1 366/2/1 367/3/1 368/4/1
f 369/1/1 370/2/1 371/3/1 372/4/1
f 373/1/1 374/2/1 375/3/1 376/4/1
f 377/1/1 378/2/1 379/3/1 380/4/1
f 381/1/1 382/2/1 383/3/1 384/4/1
f 385/1/1 386/2/1 387/3/1 388/4/1
f 389/1/1 390/2/1 391/3/1 392/4/1
f 393/1/1 394/2/1 395/3/1 396/4/1
f 397/1/1 398/2/1 399/3/1 400/4/1
f 401/1/1 402/2/1 403/3/1 404/4/1
f 405/1/1 406/2/1 407/3/1 408/4/1
f 409/1/1 410/2/1 411/3/1 412/4/1
f 413/1/1 414/2/1 415/3/1 416/4/1
f 417/1/1 418/2/1 419/3/1 420/4/1
f 421/1/1 422/2/1 423/3/1 424/4/1
f 425/1/1 426/2/1 427/3/1 428/4/1
f 429/1/1 430/2/1 431/3/1 432/4/1
f 433/1/1 434/2/1 435/3/1 436/4/1
f 437/1/1 438/2/1 439/3/1 440/4/1
f 441/1/1 442/2/1 443/3/1 444/4/1
f 445/1/1 446/2/1 447/3/1 448/4/1
f 449/1/1 450/2/1 451/3/1 452/4/1
f 453/1/1 454/2/1 455/3/1 456/4/1
f 457/1/1 458/2/1 459/3/1 460/4/1
f 461/1/1 462/2/1 463/3/1 464/4/1
f 465/1/1 466/2/1 467/3/1 468/4/1
f 469/1/1 470/2/1 471/3/1 472/4/1
f 473/1/1 474/2/1 475/3/1 476/4/1
f 477/1/1 478/2/1 479/3/1 480/4/1
f 481/1/1 482/2/1 483/3/1 484/4/1
f 485/1/1 486/2/1 487/3/1 488/4/1
f 489/1/1 490/2/1 491/3/1 492/4/1
f 493/1/1 494/2/1 495/3/1 496/4/1
f 497/1/1 498/2/1 499/3/1 500/4/1
f 501/1/1 502/2/1 503/3/1 504/4/1
f 505/1/1 506/2/1 507/3/1 508/4/1
f 509/1/1 510/2/1 511/3/1 512/4/1
f 513/9/1 514/10/1 515/11/1 516/12/1
f 517/1/1 518/2/1 519/3/1 520/4/1
f 521/1/1 522/2/1 523/3/1 524/4/1
f 525/1/1 526/2/1 527/3/1 528/4/1
f 529/1/1 530/2/1 531/3/1 532/4/1
f 533/1/1 534/2/1 535/3/1 536/4/1
f 537/1/1 538/2/1 539/3/1 540/4/1
f 541/13/1 542/14/1 543/5/1 544/15/1
f 545/13/1 546/14/1 547/5/1 548/15/1
f 549/16/1 550/15/1 551/17/1 552/18/1
f 553/15/1 554/5/1 555/8/1 556/17/1
f 557/15/1 558/5/1 559/8/1 560/17/1
f 561/15/1 562/5/1 563/8/1 564/17/1
f 565/15/1 566/5/1 567/8/1 568/17/1
f 569/1/1 570/2/1 571/3/1 572/4/1
f 573/1/1 574/2/1 575/3/1 576/4/1
f 577/1/1 578/2/1 579/3/1 580/4/1
f 581/1/1 582/2/1 583/3/1 584/4/1
f 585/19/1 586/20/1 587/14/1 588/13/1
f 589/19/1 590/20/1 591/14/1 592/13/1
f 593/21/1 594/13/1 595/15/1 596/16/1
f 597/13/1 598/14/1 599/5/1 600/15/1
f 601/13/1 602/14/1 603/5/1 604/15/1
f 605/13/1 606/14/1 607/5/1 608/15/1
f 609/13/1 610/14/1 611/5/1 612/15/1
f 613/1/1 614/2/1 615/3/1 616/4/1
f 617/1/1 618/2/1 619/3/1 620/4/1
f 621/1/1 622/2/1 623/3/1 624/4/1
f 625/1/1 626/2/1 627/3/1 628/4/1
f 629/1/1 630/2/1 631/3/1 632/4/1
f 633/1/1 634/2/1 635/3/1 636/4/1
f 637/22/1 638/19/1 639/13/1 640/21/1
f 641/22/1 642/19/1 643/13/1 644/21/1
f 645/22/1 646/19/1 647/13/1 648/21/1
f 649/22/1 650/19/1 651/13/1 652/21/1
f 653/22/1 654/19/1 655/13/1 656/21/1
f 657/22/1 658/19/1 659/13/1 660/21/1
f 661/22/1 662/19/1 663/13/1 664/21/1
f 665/19/1 666/20/1 667/14/1 668/13/1
f 669/1/1 670/2/1 671/3/1 672/4/1
f 673/1/1 674/2/1 675/3/1 676/4/1
f 677/1/1 678/2/1 679/3/1 680/4/1
f 681/1/1 682/2/1 683/3/1 684/4/1
f 685/1/1 686/2/1 687/3/1 688/4/1
f 689/1/1 690/2/1 691/3/1 692/4/1
f 693/1/1 694/2/1 695/3/1 696/4/1
f 697/1/1 698/2/1 699/3/1 700/4/1
f 701/1/1 702/2/1 703/3/1 704/4/1
f 705/1/1 706/2/1 707/3/1 708/4/1
f 709/1/1 710/2/1 711/3/1 712/4/1
f 713/1/1 714/2/1 715/3/1 716/4/1
f 717/1/1 718/2/1 719/3/1 720/4/1
f 721/1/1 722/2/1 723/3/1 724/4/1
f 725/23/1 726/24/1 727/25/1 728/26/1
f 729/23/1 730/24/1 731/25/1 732/26/1
f 733/23/1 734/24/1 735/25/1 736/26/1
f 737/23/1 738/24/1 739/25/1 740/26/1
f 741/23/1 742/24/1 743/25/1 744/26/1
f 745/23/1 746/24/1 747/25/1 748/26/1
f 749/23/1 750/24/1 751/25/1 752/26/1
f 753/23/1 754/24/1 755/25/1 756/26/1
f 757/23/1 758/24/1 759/25/1 760/26/1
f 761/23/1 762/24/1 763/25/1 764/26/1
f 765/23/1 766/24/1 767/25/1 768/26/1
f 769/23/1 770/24/1 771/25/1 772/26/1
f 773/23/1 774/24/1 775/25/1 776/26/1
f 777/23/1 778/24/1 779/25/1 780/26/1
f 781/23/1 782/24/1 783/25/1 784/26/1
f 785/23/1 786/24/1 787/25/1 788/26/1
f 789/23/1 790/24/1 791/25/1 792/26/1
f 793/23/1 794/24/1 795/25/1 796/26/1
f 797/23/1 798/24/1 799/25/1 800/26/1
f 801/9/1 802/10/1 803/11/1 804/12/1

